<?xml version="1.0" encoding="UTF-8" standalone="no"?>
<!DOCTYPE svg PUBLIC "-//W3C//DTD SVG 1.1//EN"
 "http://www.w3.org/Graphics/SVG/1.1/DTD/svg11.dtd">
<!-- Generated by graphviz version 2.34.0 (20140207.2101)
 -->
<!-- Title: %3 Pages: 1 -->
<svg width="1778pt" height="266pt"
  xmlns="http://www.w3.org/2000/svg" xmlns:xlink="http://www.w3.org/1999/xlink">
<g id="graph0" class="graph" transform="scale(1.38889 1.38889) rotate(0) translate(4 187.8)">
<title>%3</title>
<polygon fill="white" stroke="white" points="-4,4 -4,-187.8 1276,-187.8 1276,4 -4,4"/>
<!-- DSL1129 -->
<g id="DSL1129" class="node"><title>DSL1129</title>
<polygon fill="none" stroke="black" points="54,-131 0,-131 0,-95 54,-95 54,-131"/>
<text text-anchor="middle" x="27" y="-105.8" font-family="Times,serif" font-size="18.00">DSL</text>
</g>
<!-- Clojure1128 -->
<g id="Clojure1128" class="node"><title>Clojure1128</title>
<polygon fill="none" stroke="black" points="221.991,-131 152.009,-131 152.009,-95 221.991,-95 221.991,-131"/>
<text text-anchor="middle" x="187" y="-105.8" font-family="Times,serif" font-size="18.00">Clojure</text>
</g>
<!-- DSL1129&#45;&gt;Clojure1128 -->
<g id="edge1140" class="edge"><title>DSL1129&#45;&gt;Clojure1128</title>
<g id="a_edge1140"><a xlink:title="Describing">
<path fill="none" stroke="#ff0000" d="M54.0905,-113C77.8996,-113 113.575,-113 141.824,-113"/>
<polygon fill="#ff0000" stroke="#ff0000" points="141.859,-116.5 151.859,-113 141.859,-109.5 141.859,-116.5"/>
</a>
</g>
<g id="a_edge1140&#45;label"><a xlink:title="Describing">
<text text-anchor="middle" x="103" y="-115.8" font-family="Times,serif" font-size="14.00">Describing</text>
</a>
</g>
</g>
<!-- Archi1127 -->
<g id="Archi1127" class="node"><title>Archi1127</title>
<polygon fill="none" stroke="black" points="387.483,-131 330.517,-131 330.517,-95 387.483,-95 387.483,-131"/>
<text text-anchor="middle" x="359" y="-105.8" font-family="Times,serif" font-size="18.00">Archi</text>
</g>
<!-- Clojure1128&#45;&gt;Archi1127 -->
<g id="edge1141" class="edge"><title>Clojure1128&#45;&gt;Archi1127</title>
<g id="a_edge1141"><a xlink:title="Describing">
<path fill="none" stroke="#ff0000" d="M221.993,-113C250.385,-113 290.825,-113 320.224,-113"/>
<polygon fill="#ff0000" stroke="#ff0000" points="320.513,-116.5 330.513,-113 320.513,-109.5 320.513,-116.5"/>
</a>
</g>
<g id="a_edge1141&#45;label"><a xlink:title="Describing">
<text text-anchor="middle" x="271" y="-115.8" font-family="Times,serif" font-size="14.00">Describing</text>
</a>
</g>
</g>
<!-- Tangle1130 -->
<g id="Tangle1130" class="node"><title>Tangle1130</title>
<polygon fill="none" stroke="black" points="702.218,-154 637.782,-154 637.782,-118 702.218,-118 702.218,-154"/>
<text text-anchor="middle" x="670" y="-128.8" font-family="Times,serif" font-size="18.00">Tangle</text>
</g>
<!-- Archi1127&#45;&gt;Tangle1130 -->
<g id="edge1142" class="edge"><title>Archi1127&#45;&gt;Tangle1130</title>
<g id="a_edge1142"><a xlink:title="Rendering">
<path fill="none" stroke="#00ff00" d="M387.694,-115.061C442.138,-119.114 563.376,-128.138 627.457,-132.908"/>
<polygon fill="#00ff00" stroke="#00ff00" points="627.374,-136.411 637.606,-133.663 627.893,-129.431 627.374,-136.411"/>
</a>
</g>
<g id="a_edge1142&#45;label"><a xlink:title="Rendering">
<text text-anchor="middle" x="517" y="-135.8" font-family="Times,serif" font-size="14.00">Rendering: Render</text>
</a>
</g>
</g>
<!-- SVG1132 -->
<g id="SVG1132" class="node"><title>SVG1132</title>
<polygon fill="none" stroke="black" points="1272,-154 1218,-154 1218,-118 1272,-118 1272,-154"/>
<text text-anchor="middle" x="1245" y="-128.8" font-family="Times,serif" font-size="18.00">SVG</text>
</g>
<!-- Archi1127&#45;&gt;SVG1132 -->
<g id="edge1145" class="edge"><title>Archi1127&#45;&gt;SVG1132</title>
<g id="a_edge1145"><a xlink:title="Rendering">
<path fill="none" stroke="#00ff00" d="M387.646,-111.454C479.599,-106.609 783.514,-92.9633 1034,-109 1095.38,-112.93 1166.23,-123.256 1207.96,-129.94"/>
<polygon fill="#00ff00" stroke="#00ff00" points="1207.48,-133.408 1217.91,-131.554 1208.6,-126.498 1207.48,-133.408"/>
</a>
</g>
<g id="a_edge1145&#45;label"><a xlink:title="Rendering">
<text text-anchor="middle" x="823" y="-106.8" font-family="Times,serif" font-size="14.00">Rendering: Fix SVG</text>
</a>
</g>
</g>
<!-- HTML1133 -->
<g id="HTML1133" class="node"><title>HTML1133</title>
<polygon fill="none" stroke="black" points="703.494,-49 636.506,-49 636.506,-13 703.494,-13 703.494,-49"/>
<text text-anchor="middle" x="670" y="-23.8" font-family="Times,serif" font-size="18.00">HTML</text>
</g>
<!-- Archi1127&#45;&gt;HTML1133 -->
<g id="edge1147" class="edge"><title>Archi1127&#45;&gt;HTML1133</title>
<g id="a_edge1147"><a xlink:title="Rendering">
<path fill="none" stroke="#00ff00" d="M373.546,-94.8047C383.763,-82.5478 398.909,-67.2085 416,-59.2 420.714,-56.991 555.63,-42.7485 626.469,-35.3893"/>
<polygon fill="#00ff00" stroke="#00ff00" points="626.847,-38.8689 636.433,-34.3557 626.125,-31.9063 626.847,-38.8689"/>
</a>
</g>
<g id="a_edge1147&#45;label"><a xlink:title="Rendering">
<text text-anchor="middle" x="517" y="-62.8" font-family="Times,serif" font-size="14.00">Rendering: Wrap HTML interaction</text>
</a>
</g>
</g>
<!-- Graphviz1131 -->
<g id="Graphviz1131" class="node"><title>Graphviz1131</title>
<polygon fill="none" stroke="black" points="1029.47,-154 946.527,-154 946.527,-118 1029.47,-118 1029.47,-154"/>
<text text-anchor="middle" x="988" y="-128.8" font-family="Times,serif" font-size="18.00">Graphviz</text>
</g>
<!-- Tangle1130&#45;&gt;Graphviz1131 -->
<g id="edge1143" class="edge"><title>Tangle1130&#45;&gt;Graphviz1131</title>
<g id="a_edge1143"><a xlink:title="Rendering">
<path fill="none" stroke="#00ff00" d="M702.455,-136C757.134,-136 870.168,-136 936.125,-136"/>
<polygon fill="#00ff00" stroke="#00ff00" points="936.29,-139.5 946.29,-136 936.29,-132.5 936.29,-139.5"/>
</a>
</g>
<g id="a_edge1143&#45;label"><a xlink:title="Rendering">
<text text-anchor="middle" x="823" y="-138.8" font-family="Times,serif" font-size="14.00">Rendering: Render</text>
</a>
</g>
</g>
<!-- Graphviz1131&#45;&gt;SVG1132 -->
<g id="edge1144" class="edge"><title>Graphviz1131&#45;&gt;SVG1132</title>
<g id="a_edge1144"><a xlink:title="Rendering">
<path fill="none" stroke="#00ff00" d="M1029.69,-136C1078.84,-136 1160.77,-136 1207.82,-136"/>
<polygon fill="#00ff00" stroke="#00ff00" points="1207.86,-139.5 1217.86,-136 1207.86,-132.5 1207.86,-139.5"/>
</a>
</g>
<g id="a_edge1144&#45;label"><a xlink:title="Rendering">
<text text-anchor="middle" x="1126" y="-138.8" font-family="Times,serif" font-size="14.00">Rendering: Generate SVG</text>
</a>
</g>
</g>
<!-- SVG1132&#45;&gt;Archi1127 -->
<g id="edge1146" class="edge"><title>SVG1132&#45;&gt;Archi1127</title>
<g id="a_edge1146"><a xlink:title="Rendering">
<path fill="none" stroke="#00ff00" d="M1217.59,-149.969C1211.93,-152.401 1205.88,-154.597 1200,-156 1128.18,-173.15 1107.83,-161.444 1034,-163 931.048,-165.17 481.277,-175.566 416,-153 405.922,-149.516 396.064,-143.6 387.499,-137.37"/>
<polygon fill="#00ff00" stroke="#00ff00" points="389.456,-134.46 379.403,-131.115 385.176,-139.999 389.456,-134.46"/>
</a>
</g>
<g id="a_edge1146&#45;label"><a xlink:title="Rendering">
<text text-anchor="middle" x="823" y="-169.8" font-family="Times,serif" font-size="14.00">Rendering: Wrap HTML interaction</text>
</a>
</g>
</g>
<!-- JavaScript1134 -->
<g id="JavaScript1134" class="node"><title>JavaScript1134</title>
<polygon fill="none" stroke="black" points="1033.48,-49 942.521,-49 942.521,-13 1033.48,-13 1033.48,-49"/>
<text text-anchor="middle" x="988" y="-23.8" font-family="Times,serif" font-size="18.00">JavaScript</text>
</g>
<!-- HTML1133&#45;&gt;JavaScript1134 -->
<g id="edge1149" class="edge"><title>HTML1133&#45;&gt;JavaScript1134</title>
<g id="a_edge1149"><a xlink:title="Interaction">
<path fill="none" stroke="#0000ff" d="M703.627,-31C757.663,-31 866.299,-31 932.247,-31"/>
<polygon fill="#0000ff" stroke="#0000ff" points="932.45,-34.5001 942.45,-31 932.45,-27.5001 932.45,-34.5001"/>
</a>
</g>
<g id="a_edge1149&#45;label"><a xlink:title="Interaction">
<text text-anchor="middle" x="823" y="-33.8" font-family="Times,serif" font-size="14.00">Interaction: View</text>
</a>
</g>
</g>
<!-- Browser1135 -->
<g id="Browser1135" class="node"><title>Browser1135</title>
<polygon fill="none" stroke="black" points="397.487,-36 320.513,-36 320.513,-0 397.487,-0 397.487,-36"/>
<text text-anchor="middle" x="359" y="-10.8" font-family="Times,serif" font-size="18.00">Browser</text>
</g>
<!-- Browser1135&#45;&gt;HTML1133 -->
<g id="edge1148" class="edge"><title>Browser1135&#45;&gt;HTML1133</title>
<g id="a_edge1148"><a xlink:title="Interaction">
<path fill="none" stroke="#0000ff" d="M397.758,-15.5593C448.166,-12.8975 540.141,-10.1267 618,-19.2 620.7,-19.5146 623.465,-19.9167 626.243,-20.3817"/>
<polygon fill="#0000ff" stroke="#0000ff" points="625.788,-23.858 636.267,-22.2959 627.101,-16.9823 625.788,-23.858"/>
</a>
</g>
<g id="a_edge1148&#45;label"><a xlink:title="Interaction">
<text text-anchor="middle" x="517" y="-22.8" font-family="Times,serif" font-size="14.00">Interaction: View</text>
</a>
</g>
</g>
</g>
</svg>
